<?xml version="1.0" encoding="UTF-8"?>
<svg id="Layer_2" data-name="Layer 2" xmlns="http://www.w3.org/2000/svg" viewBox="0 0 37.13 40.54">
  <defs>
    <style>
      .cls-1 {
        fill: #fff;
      }
    </style>
  </defs>
  <g id="Layer_1-2" data-name="Layer 1">
    <path class="cls-1" d="M.49,21.37l35.99-.02c.27,0,.53.2.59.47.08.38.07,2.16.02,2.6-.02.13-.03.2-.09.31-.27.53-2.41.94-2.97,1.36-.39,1.39-.92,2.73-1.66,3.97l1.17,2.64c.12.31-.07.59-.25.82-.41.54-2.8,2.95-3.31,3.3-.1.07-.28.18-.38.2-.53.09-2.33-1.08-2.99-1.19-1.24.74-2.59,1.26-3.97,1.66-.25.18-.79,2.18-1.05,2.63-.1.18-.23.32-.42.4l-5.03.04c-.12,0-.21-.04-.31-.09-.52-.27-.96-2.42-1.36-2.97-1.39-.39-2.73-.93-3.97-1.66-.29-.02-2.11.98-2.6,1.13-.41.13-.54.05-.86-.21-.58-.45-2.86-2.7-3.26-3.27-.15-.21-.3-.45-.23-.71l1.19-2.7c-.74-1.24-1.27-2.58-1.66-3.97-.52-.39-2.8-.88-3.02-1.39-.08-.19-.09-2.5-.04-2.81.04-.26.21-.45.46-.52ZM9.09,22.66H1.33v1.27c.57.43,2.6.8,2.89,1.35.25.46.43,1.53.66,2.12.35.9.86,1.71,1.26,2.58l-1.13,2.83,2.69,2.71h.24c.72-.25,1.66-.9,2.37-1.07.12-.03.22-.07.35-.02,1.47.85,3.03,1.49,4.67,1.94.51.34.86,2.24,1.26,2.82.16.1,3.35.09,3.72.04.09-.01.18,0,.24-.09.33-.57.74-2.45,1.22-2.78.94-.31,1.89-.56,2.79-.96.49-.22,1.43-.85,1.82-.96.14-.04.2-.05.35-.02.68.12,1.74.9,2.45,1.07.1.03.18.08.27-.02l2.64-2.68c.08-.31-1.18-2.33-1.13-2.83.03-.27.84-1.6,1.02-2.01.14-.32.27-.66.39-1,.18-.47.32-1.32.51-1.69.3-.56,2.32-.91,2.89-1.35v-1.27h-7.76c-.44,5.8-5.79,9.82-11.51,8.61-4.07-.86-7.16-4.46-7.43-8.61ZM26.72,22.66H10.39c.25,3.18,2.4,5.98,5.41,7.04,5.12,1.81,10.45-1.69,10.92-7.04Z"/>
    <path class="cls-1" d="M8.92,14.09c1.8.64,3.27,2.2,3.87,4,.16.49.59,1.81-.04,2.08l-12.39-.02c-.61-.26-.25-1.37-.1-1.86.57-1.95,2.08-3.45,3.92-4.24-2.06-1.77-1.53-5.18,1.04-6.14,3.89-1.47,6.77,3.49,3.7,6.18ZM6.21,8.97c-2.92.42-2.53,5.06.79,4.63,2.86-.38,2.33-5.07-.79-4.63ZM11.7,18.91c-1.39-5.21-8.9-5.27-10.2,0h10.2Z"/>
    <path class="cls-1" d="M33.31,4.23c.42-.09,2.69-.08,3.16,0,.29.04.53.16.6.46l.02,14.92c0,.27-.2.53-.47.59-.4.09-2.88.08-3.32.01-.37-.06-.43-.31-.52-.63l-.02-14.52c0-.35.19-.76.55-.84ZM35.78,5.52h-1.59l-.12.12v13.27h1.71V5.52Z"/>
    <path class="cls-1" d="M33.44,3.53c-.29-.25-.14-.64-.15-.95l-4.25,3.84c-.21.19-.52.21-.78.12l-5.99-2.56-6.13,4.65c-.77.34-1.3-.54-.7-1.11l6.59-4.92.43.02,5.99,2.56,4.13-3.78c-.24-.1-.52,0-.77-.05-.71-.12-.69-1.2.16-1.3.51-.06,1.86-.06,2.37,0,.31.04.57.2.61.53.05.36-.3,2.2-.43,2.6-.16.48-.7.7-1.1.36Z"/>
    <path class="cls-1" d="M24.17,8.32c.07.07.12.19.17.28v11.21c-.06.12-.14.22-.23.28,0,0-.12.09-.28.11-.19.03-1.54.03-3.39-.03-.05-.02-.12-.06-.19-.12-.09-.08-.13-.16-.14-.18-.04-.07-.05-.13-.06-.22-.01-.07-.02-.18-.02-.3-.04-5.66-.03-9.8,0-10.37.02-.28.09-.52.27-.68.15-.13.33-.17.43-.18.64-.07,2.3-.07,2.94,0,.15.02.39.09.5.19ZM23.05,9.44h-1.59l-.12.12v9.35h1.71v-9.47Z"/>
    <path class="cls-1" d="M26.94,10.19c.39-.09,2.72-.08,3.16-.01.21.03.51.19.58.4l.04,9.03c0,.26-.17.48-.41.57-.55.03-1.12.05-1.71.06-.59,0-1.15,0-1.7,0-.06-.02-.28-.11-.42-.35-.13-.23-.11-.45-.1-.52,0-.61,0-1.21,0-1.82,0-1.23.01-2.46.02-3.69,0-.97-.02-1.93-.02-2.9.17-.4.35-.71.55-.76ZM29.42,11.48h-1.59l-.12.12v7.31h1.71v-7.43Z"/>
    <path class="cls-1" d="M14.21,13.21c.39-.09,2.81-.08,3.24-.01.39.06.51.33.54.69.17,1.81-.13,3.88,0,5.72-.05.44-.28.58-.69.61-.71.06-2.34.08-3.03,0-.45-.05-.57-.35-.61-.77-.12-1.25-.14-4.24,0-5.47.04-.33.19-.68.55-.76ZM16.68,14.5h-1.71v4.41h1.71v-4.41Z"/>
  </g>
</svg>